<?xml version="1.0" encoding="UTF-8"?>
<svg xmlns="http://www.w3.org/2000/svg" xmlns:xlink="http://www.w3.org/1999/xlink" width="300px" height="73px" viewBox="0 0 301 73" version="1.1">
<defs>
<clipPath id="clip1">
  <path d="M 0.261719 10.042969 L 215.46875 10.042969 L 215.46875 62.628906 L 0.261719 62.628906 Z M 0.261719 10.042969 "/>
</clipPath>
<clipPath id="clip2">
  <path d="M 227.859375 0 L 248 0 L 248 72.671875 L 227.859375 72.671875 Z M 227.859375 0 "/>
</clipPath>
<clipPath id="clip3">
  <path d="M 252 0 L 272 0 L 272 72.671875 L 252 72.671875 Z M 252 0 "/>
</clipPath>
<clipPath id="clip4">
  <path d="M 251 0 L 273 0 L 273 72.671875 L 251 72.671875 Z M 251 0 "/>
</clipPath>
<clipPath id="clip5">
  <path d="M 276 0 L 297 0 L 297 72.671875 L 276 72.671875 Z M 276 0 "/>
</clipPath>
<clipPath id="clip6">
  <path d="M 275 0 L 297 0 L 297 72.671875 L 275 72.671875 Z M 275 0 "/>
</clipPath>
</defs>
<g id="surface1">
<g clip-path="url(#clip1)" clip-rule="nonzero">
<path style=" stroke:none;fill-rule:nonzero;fill:rgb(100%,100%,20%);fill-opacity:1;" d="M 19.726562 54.523438 C 21.5 54.523438 23.625 54.132812 26.105469 53.347656 L 26.105469 60.917969 C 23.582031 62.058594 20.476562 62.628906 16.792969 62.628906 C 12.730469 62.628906 9.773438 61.597656 7.917969 59.539062 C 6.0625 57.480469 5.136719 54.398438 5.136719 50.289062 L 5.136719 32.304688 L 0.28125 32.304688 L 0.28125 28 L 5.871094 24.597656 L 8.804688 16.710938 L 15.292969 16.710938 L 15.292969 24.664062 L 25.710938 24.664062 L 25.710938 32.304688 L 15.292969 32.304688 L 15.292969 50.289062 C 15.292969 51.726562 15.699219 52.792969 16.507812 53.484375 C 17.316406 54.179688 18.390625 54.523438 19.726562 54.523438 Z M 64.355469 61.957031 L 57.265625 61.957031 L 55.300781 56.886719 L 55.042969 56.886719 C 53.332031 59.046875 51.574219 60.542969 49.765625 61.371094 C 47.957031 62.207031 45.597656 62.628906 42.6875 62.628906 C 39.117188 62.628906 36.300781 61.601562 34.246094 59.554688 C 32.191406 57.511719 31.167969 54.601562 31.167969 50.820312 C 31.167969 46.859375 32.546875 43.9375 35.3125 42.0625 C 38.074219 40.175781 42.242188 39.132812 47.816406 38.933594 L 54.265625 38.742188 L 54.265625 37.101562 C 54.265625 33.320312 52.335938 31.429688 48.484375 31.429688 C 45.511719 31.429688 42.015625 32.332031 37.996094 34.136719 L 34.628906 27.261719 C 38.910156 25.011719 43.660156 23.886719 48.878906 23.886719 C 53.871094 23.886719 57.695312 24.980469 60.359375 27.167969 C 63.023438 29.34375 64.355469 32.65625 64.355469 37.101562 Z M 54.265625 47.746094 L 54.265625 44.671875 L 50.339844 44.808594 C 47.394531 44.898438 45.199219 45.433594 43.75 46.40625 C 42.304688 47.390625 41.582031 48.878906 41.582031 50.875 C 41.582031 53.746094 43.230469 55.179688 46.519531 55.179688 C 48.867188 55.179688 50.742188 54.5 52.152344 53.144531 C 53.558594 51.796875 54.265625 49.996094 54.265625 47.746094 Z M 100.777344 50.875 C 100.777344 54.703125 99.449219 57.617188 96.792969 59.621094 C 94.140625 61.625 90.171875 62.628906 84.890625 62.628906 C 82.183594 62.628906 79.871094 62.445312 77.964844 62.082031 C 76.0625 61.707031 74.277344 61.164062 72.605469 60.453125 L 72.605469 52.050781 C 74.496094 52.945312 76.625 53.6875 78.988281 54.277344 C 81.351562 54.878906 83.433594 55.179688 85.230469 55.179688 C 88.914062 55.179688 90.753906 54.113281 90.753906 51.980469 C 90.753906 51.179688 90.507812 50.53125 90.019531 50.027344 C 89.535156 49.527344 88.695312 48.960938 87.496094 48.332031 C 86.296875 47.695312 84.695312 46.953125 82.695312 46.105469 C 79.832031 44.902344 77.730469 43.792969 76.394531 42.773438 C 75.050781 41.75 74.074219 40.582031 73.464844 39.261719 C 72.855469 37.929688 72.550781 36.300781 72.550781 34.367188 C 72.550781 31.050781 73.832031 28.488281 76.394531 26.675781 C 78.960938 24.859375 82.589844 23.953125 87.289062 23.953125 C 91.773438 23.953125 96.136719 24.933594 100.382812 26.894531 L 97.3125 34.230469 C 95.449219 33.429688 93.707031 32.773438 92.089844 32.261719 C 90.464844 31.753906 88.808594 31.5 87.128906 31.5 C 84.128906 31.5 82.628906 32.308594 82.628906 33.929688 C 82.628906 34.839844 83.109375 35.632812 84.074219 36.308594 C 85.046875 36.972656 87.164062 37.960938 90.425781 39.273438 C 93.328125 40.449219 95.453125 41.550781 96.808594 42.582031 C 98.164062 43.601562 99.164062 44.777344 99.808594 46.105469 C 100.453125 47.445312 100.777344 49.035156 100.777344 50.875 Z M 118.3125 41.679688 L 118.449219 41.679688 L 122.878906 36.007812 L 133.296875 24.664062 L 144.75 24.664062 L 129.96875 40.84375 L 145.652344 61.957031 L 133.925781 61.957031 L 123.207031 46.84375 L 118.84375 50.34375 L 118.84375 61.957031 L 108.699219 61.957031 L 108.699219 10.042969 L 118.84375 10.042969 L 118.84375 33.207031 Z M 166.378906 31.199219 C 164.234375 31.199219 162.546875 31.878906 161.320312 33.246094 C 160.101562 34.613281 159.402344 36.554688 159.21875 39.070312 L 173.46875 39.070312 C 173.433594 36.554688 172.777344 34.613281 171.503906 33.246094 C 170.242188 31.878906 168.53125 31.199219 166.378906 31.199219 Z M 167.808594 62.628906 C 161.820312 62.628906 157.136719 60.96875 153.765625 57.652344 C 150.390625 54.335938 148.707031 49.644531 148.707031 43.578125 C 148.707031 37.328125 150.265625 32.496094 153.382812 29.078125 C 156.5 25.664062 160.808594 23.953125 166.308594 23.953125 C 171.574219 23.953125 175.667969 25.457031 178.59375 28.464844 C 181.53125 31.460938 183 35.605469 183 40.898438 L 183 45.847656 L 158.988281 45.847656 C 159.105469 48.734375 159.960938 50.988281 161.550781 52.609375 C 163.152344 54.242188 165.394531 55.058594 168.285156 55.058594 C 170.523438 55.058594 172.640625 54.820312 174.640625 54.347656 C 176.640625 53.882812 178.726562 53.140625 180.898438 52.117188 L 180.898438 59.992188 C 179.128906 60.882812 177.226562 61.542969 175.199219 61.972656 C 173.183594 62.410156 170.71875 62.628906 167.808594 62.628906 Z M 212.015625 23.953125 C 213.398438 23.953125 214.542969 24.054688 215.453125 24.253906 L 214.6875 33.792969 C 213.863281 33.574219 212.863281 33.464844 211.691406 33.464844 C 208.445312 33.464844 205.917969 34.300781 204.109375 35.964844 C 202.300781 37.632812 201.394531 39.96875 201.394531 42.976562 L 201.394531 61.957031 L 191.25 61.957031 L 191.25 24.664062 L 198.941406 24.664062 L 200.441406 30.925781 L 200.929688 30.925781 C 202.085938 28.839844 203.644531 27.15625 205.609375 25.882812 C 207.570312 24.597656 209.707031 23.953125 212.015625 23.953125 Z M 212.015625 23.953125 "/>
</g>
<g clip-path="url(#clip2)" clip-rule="nonzero">
<path style="fill-rule:nonzero;fill:rgb(100%,100%,20%);fill-opacity:1;stroke-width:1;stroke-linecap:butt;stroke-linejoin:miter;stroke:rgb(100%,100%,100%);stroke-opacity:1;stroke-miterlimit:4;" d="M 0.00225556 -0.000000000000007974 L 36.428995 -0.000000000000007974 L 36.428995 133.270852 L 0.00225556 133.270852 Z M 0.00225556 -0.000000000000007974 " transform="matrix(0.544114,0,0,0.545295,227.858148,0.000000000000004348)"/>
</g>
<g clip-path="url(#clip3)" clip-rule="nonzero">
<path style=" stroke:none;fill-rule:nonzero;fill:rgb(100%,100%,20%);fill-opacity:0.74902;" d="M 252.03125 0 L 271.851562 0 L 271.851562 72.671875 L 252.03125 72.671875 Z M 252.03125 0 "/>
</g>
<g clip-path="url(#clip4)" clip-rule="nonzero">
<path style="fill:none;stroke-width:1;stroke-linecap:butt;stroke-linejoin:miter;stroke:rgb(100%,100%,100%);stroke-opacity:1;stroke-miterlimit:4;" d="M 44.42651 -0.000000000000007974 L 80.85325 -0.000000000000007974 L 80.85325 133.270852 L 44.42651 133.270852 Z M 44.42651 -0.000000000000007974 " transform="matrix(0.544114,0,0,0.545295,227.858148,0.000000000000004348)"/>
</g>
<g clip-path="url(#clip5)" clip-rule="nonzero">
<path style=" stroke:none;fill-rule:nonzero;fill:rgb(100%,100%,20%);fill-opacity:0.501961;" d="M 276.199219 0 L 296.019531 0 L 296.019531 72.671875 L 276.199219 72.671875 Z M 276.199219 0 "/>
</g>
<g clip-path="url(#clip6)" clip-rule="nonzero">
<path style="fill:none;stroke-width:1;stroke-linecap:butt;stroke-linejoin:miter;stroke:rgb(100%,100%,100%);stroke-opacity:1;stroke-miterlimit:4;" d="M 88.843585 -0.000000000000007974 L 125.270325 -0.000000000000007974 L 125.270325 133.270852 L 88.843585 133.270852 Z M 88.843585 -0.000000000000007974 " transform="matrix(0.544114,0,0,0.545295,227.858148,0.000000000000004348)"/>
</g>
</g>
</svg>
