<svg xmlns="http://www.w3.org/2000/svg" version="1.1" xmlns:xlink="http://www.w3.org/1999/xlink" xmlns:svgjs="http://svgjs.dev/svgjs" width="1500" height="1500" viewBox="0 0 1500 1500"><rect width="1500" height="1500" fill="#333366"></rect><g transform="matrix(0.6666666666666666,0,0,0.6666666666666666,249.39393939393938,628.4550631879713)"><svg viewBox="0 0 396 96" data-background-color="#333366" preserveAspectRatio="xMidYMid meet" height="363" width="1500" xmlns="http://www.w3.org/2000/svg" xmlns:xlink="http://www.w3.org/1999/xlink"><g id="tight-bounds" transform="matrix(1,0,0,1,0.2400000000000091,0.21617328080475318)"><svg viewBox="0 0 395.52 95.56765343839048" height="95.56765343839048" width="395.52"><g><svg viewBox="0 0 551.5550738186139 133.2696807920792" height="95.56765343839048" width="395.52"><g transform="matrix(1,0,0,1,0,18.418602772277232)"><svg viewBox="0 0 395.52 96.43247524752475" height="96.43247524752475" width="395.52"><g id="textblocktransform"><svg viewBox="0 0 395.52 96.43247524752475" height="96.43247524752475" width="395.52" id="textblock"><g><svg viewBox="0 0 395.52 96.43247524752475" height="96.43247524752475" width="395.52"><g transform="matrix(1,0,0,1,0,0)"><svg width="395.52" viewBox="1.15 -37.99 157.79999999999998 38.480000000000004" height="96.43247524752475" data-palette-color="#ffff33"><path d="M15.41-5.44L15.41-5.44Q17.36-5.44 20.09-6.3L20.09-6.3 20.09-0.76Q17.31 0.49 13.26 0.49L13.26 0.49Q8.79 0.49 6.75-1.77 4.71-4.03 4.71-8.54L4.71-8.54 4.71-21.7 1.15-21.7 1.15-24.85 5.25-27.34 7.4-33.11 12.16-33.11 12.16-27.29 19.8-27.29 19.8-21.7 12.16-21.7 12.16-8.54Q12.16-6.96 13.05-6.2 13.94-5.44 15.41-5.44ZM48.14 0L42.94 0 41.5-3.71 41.31-3.71Q39.43-1.34 37.44-0.43 35.45 0.49 32.25 0.49L32.25 0.49Q28.32 0.49 26.06-1.76 23.8-4 23.8-8.15L23.8-8.15Q23.8-12.5 26.84-14.56 29.88-16.63 36.01-16.85L36.01-16.85 40.74-16.99 40.74-18.19Q40.74-22.34 36.5-22.34L36.5-22.34Q33.23-22.34 28.81-20.36L28.81-20.36 26.34-25.39Q31.05-27.86 36.79-27.86L36.79-27.86Q42.28-27.86 45.21-25.46 48.14-23.07 48.14-18.19L48.14-18.19 48.14 0ZM40.74-10.4L40.74-12.65 37.86-12.55Q34.62-12.45 33.03-11.38 31.44-10.3 31.44-8.11L31.44-8.11Q31.44-4.96 35.06-4.96L35.06-4.96Q37.64-4.96 39.19-6.45 40.74-7.93 40.74-10.4L40.74-10.4ZM74.85-8.11L74.85-8.11Q74.85-3.91 71.93-1.71 69.01 0.49 63.2 0.49L63.2 0.49Q60.22 0.49 58.12 0.09 56.03-0.32 54.19-1.1L54.19-1.1 54.19-7.25Q56.27-6.27 58.87-5.62 61.47-4.96 63.45-4.96L63.45-4.96Q67.5-4.96 67.5-7.3L67.5-7.3Q67.5-8.18 66.96-8.73 66.43-9.28 65.11-9.97 63.79-10.67 61.59-11.6L61.59-11.6Q58.44-12.92 56.97-14.04 55.49-15.16 54.82-16.61 54.15-18.07 54.15-20.19L54.15-20.19Q54.15-23.83 56.97-25.82 59.79-27.81 64.96-27.81L64.96-27.81Q69.89-27.81 74.56-25.66L74.56-25.66 72.31-20.29Q70.26-21.17 68.48-21.73 66.69-22.29 64.84-22.29L64.84-22.29Q61.54-22.29 61.54-20.51L61.54-20.51Q61.54-19.51 62.6-18.77 63.67-18.04 67.26-16.6L67.26-16.6Q70.45-15.31 71.94-14.18 73.43-13.06 74.14-11.6 74.85-10.13 74.85-8.11ZM87.71-14.84L87.81-14.84 91.06-18.99 98.7-27.29 107.1-27.29 96.26-15.45 107.76 0 99.16 0 91.3-11.06 88.1-8.5 88.1 0 80.66 0 80.66-37.99 88.1-37.99 88.1-21.04 87.71-14.84ZM122.96-22.51L122.96-22.51Q120.6-22.51 119.25-21.01 117.91-19.51 117.71-16.75L117.71-16.75 128.16-16.75Q128.12-19.51 126.72-21.01 125.33-22.51 122.96-22.51ZM124.01 0.49L124.01 0.49Q117.42 0.49 113.71-3.15 110-6.79 110-13.45L110-13.45Q110-20.31 113.43-24.06 116.86-27.81 122.91-27.81L122.91-27.81Q128.7-27.81 131.92-24.51 135.15-21.22 135.15-15.41L135.15-15.41 135.15-11.79 117.54-11.79Q117.67-8.62 119.42-6.84 121.18-5.05 124.36-5.05L124.36-5.05Q126.82-5.05 129.02-5.57 131.22-6.08 133.61-7.2L133.61-7.2 133.61-1.44Q131.66-0.46 129.43 0.01 127.21 0.49 124.01 0.49ZM156.43-27.81L156.43-27.81Q157.95-27.81 158.95-27.59L158.95-27.59 158.39-20.61Q157.48-20.85 156.19-20.85L156.19-20.85Q152.62-20.85 150.63-19.02 148.64-17.19 148.64-13.89L148.64-13.89 148.64 0 141.2 0 141.2-27.29 146.84-27.29 147.94-22.71 148.3-22.71Q149.57-25 151.73-26.4 153.89-27.81 156.43-27.81Z" opacity="1" transform="matrix(1,0,0,1,0,0)" fill="#ffff33" class="wordmark-text-0" data-fill-palette-color="primary" id="text-0"></path></svg></g></svg></g></svg></g></svg></g><g transform="matrix(1,0,0,1,418.2853930265346,0)"><svg viewBox="0 0 133.2696807920792 133.2696807920792" height="133.2696807920792" width="133.2696807920792"><g data-palette-color="#ffff33"><rect width="36.427046083168314" height="133.2696807920792" fill="#ffff33" stroke="transparent" data-fill-palette-color="accent" x="0" fill-opacity="1"></rect><rect width="36.427046083168314" height="133.2696807920792" fill="#ffff33" stroke="transparent" data-fill-palette-color="accent" x="44.42322693069307" fill-opacity="0.75"></rect><rect width="36.427046083168314" height="133.2696807920792" fill="#ffff33" stroke="transparent" data-fill-palette-color="accent" x="88.84645386138614" fill-opacity="0.5"></rect></g></svg></g></svg></g><defs></defs></svg><rect width="395.52" height="95.56765343839048" fill="none" stroke="none" visibility="hidden"></rect></g></svg></g></svg>